{"title":"Flushed Away (2006) 720p BRRip X264 Hindi R@J@T","uid":8263804,"size":1311482108,"categoryP":"video","categoryS":"hd___movies","magnet":"?xt=urn:btih:68fef92b3472cd06d1c084795b49ba9aa84287c6&amp;dn=Flushed+Away+%282006%29+720p+BRRip+X264+Hindi+R%40J%40T&amp;tr=udp%3A%2F%2Ftracker.openbittorrent.com%3A80&amp;tr=udp%3A%2F%2Fopen.demonii.com%3A1337&amp;tr=udp%3A%2F%2Ftracker.coppersurfer.tk%3A6969&amp;tr=udp%3A%2F%2Fexodus.desync.com%3A6969","seeders":0,"leechers":4,"uploader":"rajat6393","files":11,"time":1363446721,"description":"IMDB Rating:6.8/10.0\n\nGENRE: Animation | Adventure | Comedy \n\n\n\nGeneral\nUnique ID : 185535202211096318974149959385800785573 (0x8B94C7B910D481FF8BF73931D29C3EA5)\nComplete name : Flushed Away\nFormat : Matroska\nFormat version : Version 4 / Version 2\nFile size : 1.20 GiB\nDuration : 1h 21mn\nOverall bit rate : 2 113 Kbps\nMovie name : Flushed Away (2006) 720p BRRip X264 Hindi R@J@T\nEncoded date : UTC 2013-03-05 13:28:33\nWriting application : mkvmerge v6.0.0 ('Coming Up For Air') built on Jan 20 2013 09:52:00\nWriting library : libebml v1.3.0 + libmatroska v1.4.0\n\nVideo\nID : 1\nFormat : AVC\nFormat/Info : Advanced Video Codec\nFormat profile : &lt;a class=&quot;__cf_email__&quot; href=&quot;/cdn-cgi/l/email-protection&quot; data-cfemail=&quot;0547647660696c6b604549362b34&quot;&gt;[email&amp;#160;protected]&lt;/a&gt;&lt;script cf-hash='f9e31' type=&quot;text/javascript&quot;&gt;\n/* &lt;![CDATA[ */!function(){try{var t=&quot;currentScript&quot;in document?document.currentScript:function(){for(var t=document.getElementsByTagName(&quot;script&quot;),e=t.length;e--;)if(t[e].getAttribute(&quot;cf-hash&quot;))return t[e]}();if(t&amp;&amp;t.previousSibling){var e,r,n,i,c=t.previousSibling,a=c.getAttribute(&quot;data-cfemail&quot;);if(a){for(e=&quot;&quot;,r=parseInt(a.substr(0,2),16),n=2;a.length-n;n+=2)i=parseInt(a.substr(n,2),16)^r,e+=String.fromCharCode(i);e=document.createTextNode(e),c.parentNode.replaceChild(e,c)}}}catch(u){}}();/* ]]&gt; */&lt;/script&gt;\nFormat settings, CABAC : No\nFormat settings, ReFrames : 4 frames\nFormat settings, GOP : M=1, N=12\nCodec ID : V_MPEG4/ISO/AVC\nDuration : 1h 21mn\nBit rate : 1 943 Kbps\nWidth : 1 280 pixels\nHeight : 680 pixels\nDisplay aspect ratio : 16:9\nOriginal display aspect ratio : 16:9\nFrame rate mode : Constant\nFrame rate : 25.000 fps\nStandard : PAL\nColor space : YUV\nChroma subsampling : 4:2:0\nBit depth : 8 bits\nScan type : Progressive\nBits/(Pixel*Frame) : 0.089\nStream size : 1.10 GiB (92%)\nTitle : R@J@T\nLanguage : English\nDefault : Yes\nForced : No\nColor primaries : BT.601 PAL\nTransfer characteristics : BT.470 System B, BT.470 System G\nMatrix coefficients : BT.601\n\nAudio\nID : 2\nFormat : AC-3\nFormat/Info : Audio Coding 3\nMode extension : CM (complete main)\nFormat settings, Endianness : Big\nCodec ID : A_AC3\nDuration : 1h 21mn\nBit rate mode : Constant\nBit rate : 128 Kbps\nChannel(s) : 2 channels\nChannel positions : Front: L R\nSampling rate : 44.1 KHz\nBit depth : 16 bits\nCompression mode : Lossy\nStream size : 74.3 MiB (6%)\nTitle : R@J@T\nLanguage : Hindi\nDefault : Yes\nForced : No\n\n\n\nSPECIAL NOTE: CHECK SCREEN SHOTS (INSIDE THE TORRENT) AND SAMPLE BEFORE DOWNLOAD FOR SATISFACTION.\n\n\nIF YOU LIKE MY WORK PLEASE SEED THE TORRENT\n\n\n\nTHANKS \nR@J@T","torrent":{"xt":"urn:btih:68fef92b3472cd06d1c084795b49ba9aa84287c6","amp;dn":"Flushed+Away+%282006%29+720p+BRRip+X264+Hindi+R%40J%40T","amp;tr":["udp%3A%2F%2Ftracker.openbittorrent.com%3A80","udp%3A%2F%2Fopen.demonii.com%3A1337","udp%3A%2F%2Ftracker.coppersurfer.tk%3A6969","udp%3A%2F%2Fexodus.desync.com%3A6969"],"infoHash":"68fef92b3472cd06d1c084795b49ba9aa84287c6","infoHashBuffer":{"type":"Buffer","data":[104,254,249,43,52,114,205,6,209,192,132,121,91,73,186,154,168,66,135,198]},"announce":[],"urlList":[]}}